<svg xmlns="http://www.w3.org/2000/svg" viewBox="0 0 24 24">

  <!-- Gradient background -->
  <defs>
    <linearGradient id="bg" x1="0%" y1="0%" x2="100%" y2="100%">
      <stop offset="0%" stop-color="#91729c"></stop>
      <stop offset="100%" stop-color="#432161"></stop>
    </linearGradient>
  </defs>

  <!-- Background -->
  <rect x="0" y="0" width="24" height="24" rx="4" fill="url(#bg)"></rect>

  <!-- Icon -->
  <g stroke="#ffffff" stroke-width="1.8" fill="none" stroke-linecap="round" stroke-linejoin="round">

    <path d="M12.83 2.18a2 2 0 0 0-1.66 0L2.6 6.08a1 1 0 0 0 0 1.83l8.58 3.91a2 2 0 0 0 1.66 0l8.58-3.9a1 1 0 0 0 0-1.83z"></path>
    <path d="M2 12a1 1 0 0 0 .58.91l8.6 3.91a2 2 0 0 0 1.65 0l8.58-3.9A1 1 0 0 0 22 12"></path>
    <path d="M2 17a1 1 0 0 0 .58.91l8.6 3.91a2 2 0 0 0 1.65 0l8.58-3.9A1 1 0 0 0 22 17"></path>
  </g>

</svg>